ISO-10303-21;
HEADER;
/* Generated by software containing ST-Developer
 * from STEP Tools, Inc. (www.steptools.com) 
 */

FILE_DESCRIPTION(
/* description */ (''),
/* implementation_level */ '2;1');

FILE_NAME(
/* name */ 'Encoder_Bracket.step',
/* time_stamp */ '2026-04-01T20:42:41+02:00',
/* author */ (''),
/* organization */ (''),
/* preprocessor_version */ 'ST-DEVELOPER v20.1',
/* originating_system */ 'Autodesk Translation Framework v14.24.0.0',
/* authorisation */ '');

FILE_SCHEMA (('AUTOMOTIVE_DESIGN { 1 0 10303 214 3 1 1 }'));
ENDSEC;

DATA;
#10=MECHANICAL_DESIGN_GEOMETRIC_PRESENTATION_REPRESENTATION('',(#23,#24),
#724);
#11=ITEM_DEFINED_TRANSFORMATION($,$,#418,#475);
#12=ITEM_DEFINED_TRANSFORMATION($,$,#432,#476);
#13=(
REPRESENTATION_RELATIONSHIP($,$,#738,#737)
REPRESENTATION_RELATIONSHIP_WITH_TRANSFORMATION(#11)
SHAPE_REPRESENTATION_RELATIONSHIP()
);
#14=(
REPRESENTATION_RELATIONSHIP($,$,#739,#737)
REPRESENTATION_RELATIONSHIP_WITH_TRANSFORMATION(#12)
SHAPE_REPRESENTATION_RELATIONSHIP()
);
#15=CONTEXT_DEPENDENT_SHAPE_REPRESENTATION(#13,#735);
#16=CONTEXT_DEPENDENT_SHAPE_REPRESENTATION(#14,#736);
#17=NEXT_ASSEMBLY_USAGE_OCCURRENCE('Magnet_Support:1',
'Magnet_Support:1','Magnet_Support:1',#741,#742,'Magnet_Support:1');
#18=NEXT_ASSEMBLY_USAGE_OCCURRENCE('Encoder_Bracket:1',
'Encoder_Bracket:1','Encoder_Bracket:1',#741,#743,'Encoder_Bracket:1');
#19=SHAPE_REPRESENTATION_RELATIONSHIP('SRR','None',#738,#21);
#20=SHAPE_REPRESENTATION_RELATIONSHIP('SRR','None',#739,#22);
#21=ADVANCED_BREP_SHAPE_REPRESENTATION('',(#25),#722);
#22=ADVANCED_BREP_SHAPE_REPRESENTATION('',(#26),#723);
#23=STYLED_ITEM('',(#757),#25);
#24=STYLED_ITEM('',(#757),#26);
#25=MANIFOLD_SOLID_BREP('Corps1',#392);
#26=MANIFOLD_SOLID_BREP('Corps1',#393);
#27=FACE_BOUND('',#120,.T.);
#28=FACE_BOUND('',#123,.T.);
#29=FACE_BOUND('',#132,.T.);
#30=FACE_BOUND('',#133,.T.);
#31=FACE_BOUND('',#134,.T.);
#32=FACE_BOUND('',#135,.T.);
#33=FACE_BOUND('',#136,.T.);
#34=FACE_BOUND('',#137,.T.);
#35=FACE_BOUND('',#138,.T.);
#36=FACE_BOUND('',#147,.T.);
#37=FACE_BOUND('',#148,.T.);
#38=FACE_BOUND('',#149,.T.);
#39=FACE_BOUND('',#150,.T.);
#40=FACE_BOUND('',#151,.T.);
#41=FACE_BOUND('',#152,.T.);
#42=FACE_BOUND('',#153,.T.);
#43=FACE_BOUND('',#155,.T.);
#44=FACE_BOUND('',#157,.T.);
#45=FACE_BOUND('',#159,.T.);
#46=FACE_BOUND('',#161,.T.);
#47=LINE('',#620,#62);
#48=LINE('',#627,#63);
#49=LINE('',#633,#64);
#50=LINE('',#641,#65);
#51=LINE('',#647,#66);
#52=LINE('',#653,#67);
#53=LINE('',#659,#68);
#54=LINE('',#665,#69);
#55=LINE('',#685,#70);
#56=LINE('',#689,#71);
#57=LINE('',#693,#72);
#58=LINE('',#696,#73);
#59=LINE('',#700,#74);
#60=LINE('',#705,#75);
#61=LINE('',#709,#76);
#62=VECTOR('',#489,1.49999999946735);
#63=VECTOR('',#498,3.49999999534624);
#64=VECTOR('',#505,1.99999999044571);
#65=VECTOR('',#516,2.99999997651818);
#66=VECTOR('',#523,3.00000011567272);
#67=VECTOR('',#530,3.00000017995436);
#68=VECTOR('',#537,8.);
#69=VECTOR('',#544,3.00000001408359);
#70=VECTOR('',#567,15.9999999950388);
#71=VECTOR('',#572,1.50000001036435);
#72=VECTOR('',#577,1.50000001036435);
#73=VECTOR('',#580,1.49999994663764);
#74=VECTOR('',#585,1.49999994663764);
#75=VECTOR('',#592,1.49999989239062);
#76=VECTOR('',#597,1.49999989239062);
#77=CYLINDRICAL_SURFACE('',#421,1.49999999946735);
#78=CYLINDRICAL_SURFACE('',#425,3.49999999534624);
#79=CYLINDRICAL_SURFACE('',#429,1.99999999044571);
#80=CYLINDRICAL_SURFACE('',#433,2.99999997651818);
#81=CYLINDRICAL_SURFACE('',#436,3.00000011567272);
#82=CYLINDRICAL_SURFACE('',#439,3.00000017995436);
#83=CYLINDRICAL_SURFACE('',#442,8.);
#84=CYLINDRICAL_SURFACE('',#445,3.00000001408359);
#85=CYLINDRICAL_SURFACE('',#456,15.9999999950388);
#86=CYLINDRICAL_SURFACE('',#458,1.50000001036435);
#87=CYLINDRICAL_SURFACE('',#460,1.50000001036435);
#88=CYLINDRICAL_SURFACE('',#462,1.49999994663764);
#89=CYLINDRICAL_SURFACE('',#464,1.49999994663764);
#90=CYLINDRICAL_SURFACE('',#466,1.49999989239062);
#91=CYLINDRICAL_SURFACE('',#468,1.49999989239062);
#92=FACE_OUTER_BOUND('',#117,.T.);
#93=FACE_OUTER_BOUND('',#118,.T.);
#94=FACE_OUTER_BOUND('',#119,.T.);
#95=FACE_OUTER_BOUND('',#121,.T.);
#96=FACE_OUTER_BOUND('',#122,.T.);
#97=FACE_OUTER_BOUND('',#124,.T.);
#98=FACE_OUTER_BOUND('',#125,.T.);
#99=FACE_OUTER_BOUND('',#126,.T.);
#100=FACE_OUTER_BOUND('',#127,.T.);
#101=FACE_OUTER_BOUND('',#128,.T.);
#102=FACE_OUTER_BOUND('',#129,.T.);
#103=FACE_OUTER_BOUND('',#130,.T.);
#104=FACE_OUTER_BOUND('',#131,.T.);
#105=FACE_OUTER_BOUND('',#139,.T.);
#106=FACE_OUTER_BOUND('',#140,.T.);
#107=FACE_OUTER_BOUND('',#141,.T.);
#108=FACE_OUTER_BOUND('',#142,.T.);
#109=FACE_OUTER_BOUND('',#143,.T.);
#110=FACE_OUTER_BOUND('',#144,.T.);
#111=FACE_OUTER_BOUND('',#145,.T.);
#112=FACE_OUTER_BOUND('',#146,.T.);
#113=FACE_OUTER_BOUND('',#154,.T.);
#114=FACE_OUTER_BOUND('',#156,.T.);
#115=FACE_OUTER_BOUND('',#158,.T.);
#116=FACE_OUTER_BOUND('',#160,.T.);
#117=EDGE_LOOP('',(#267));
#118=EDGE_LOOP('',(#268,#269,#270,#271));
#119=EDGE_LOOP('',(#272));
#120=EDGE_LOOP('',(#273));
#121=EDGE_LOOP('',(#274,#275,#276,#277));
#122=EDGE_LOOP('',(#278));
#123=EDGE_LOOP('',(#279));
#124=EDGE_LOOP('',(#280,#281,#282,#283));
#125=EDGE_LOOP('',(#284));
#126=EDGE_LOOP('',(#285,#286,#287,#288));
#127=EDGE_LOOP('',(#289,#290,#291,#292));
#128=EDGE_LOOP('',(#293,#294,#295,#296));
#129=EDGE_LOOP('',(#297,#298,#299,#300));
#130=EDGE_LOOP('',(#301,#302,#303,#304));
#131=EDGE_LOOP('',(#305));
#132=EDGE_LOOP('',(#306));
#133=EDGE_LOOP('',(#307));
#134=EDGE_LOOP('',(#308));
#135=EDGE_LOOP('',(#309));
#136=EDGE_LOOP('',(#310));
#137=EDGE_LOOP('',(#311));
#138=EDGE_LOOP('',(#312));
#139=EDGE_LOOP('',(#313,#314,#315,#316));
#140=EDGE_LOOP('',(#317,#318,#319,#320));
#141=EDGE_LOOP('',(#321,#322,#323,#324));
#142=EDGE_LOOP('',(#325,#326,#327,#328));
#143=EDGE_LOOP('',(#329,#330,#331,#332));
#144=EDGE_LOOP('',(#333,#334,#335,#336));
#145=EDGE_LOOP('',(#337,#338,#339,#340));
#146=EDGE_LOOP('',(#341));
#147=EDGE_LOOP('',(#342));
#148=EDGE_LOOP('',(#343));
#149=EDGE_LOOP('',(#344));
#150=EDGE_LOOP('',(#345));
#151=EDGE_LOOP('',(#346));
#152=EDGE_LOOP('',(#347));
#153=EDGE_LOOP('',(#348));
#154=EDGE_LOOP('',(#349));
#155=EDGE_LOOP('',(#350));
#156=EDGE_LOOP('',(#351));
#157=EDGE_LOOP('',(#352));
#158=EDGE_LOOP('',(#353));
#159=EDGE_LOOP('',(#354));
#160=EDGE_LOOP('',(#355));
#161=EDGE_LOOP('',(#356));
#162=CIRCLE('',#420,1.49999999946735);
#163=CIRCLE('',#422,1.49999999946735);
#164=CIRCLE('',#424,3.49999999534624);
#165=CIRCLE('',#426,3.49999999534624);
#166=CIRCLE('',#428,1.99999999044571);
#167=CIRCLE('',#430,1.99999999044571);
#168=CIRCLE('',#434,2.99999997651818);
#169=CIRCLE('',#435,2.99999997651818);
#170=CIRCLE('',#437,3.00000011567273);
#171=CIRCLE('',#438,3.00000011567273);
#172=CIRCLE('',#440,3.00000017995437);
#173=CIRCLE('',#441,3.00000017995437);
#174=CIRCLE('',#443,8.);
#175=CIRCLE('',#444,8.);
#176=CIRCLE('',#446,3.00000001408359);
#177=CIRCLE('',#447,3.00000001408359);
#178=CIRCLE('',#449,15.9999999950388);
#179=CIRCLE('',#450,1.50000001036435);
#180=CIRCLE('',#451,1.49999989239062);
#181=CIRCLE('',#452,1.49999989239062);
#182=CIRCLE('',#453,1.50000001036435);
#183=CIRCLE('',#454,1.49999994663764);
#184=CIRCLE('',#455,1.49999994663764);
#185=CIRCLE('',#457,15.9999999950388);
#186=CIRCLE('',#459,1.50000001036435);
#187=CIRCLE('',#461,1.50000001036435);
#188=CIRCLE('',#463,1.49999994663764);
#189=CIRCLE('',#465,1.49999994663764);
#190=CIRCLE('',#467,1.49999989239062);
#191=CIRCLE('',#469,1.49999989239062);
#192=VERTEX_POINT('',#615);
#193=VERTEX_POINT('',#618);
#194=VERTEX_POINT('',#622);
#195=VERTEX_POINT('',#625);
#196=VERTEX_POINT('',#629);
#197=VERTEX_POINT('',#632);
#198=VERTEX_POINT('',#638);
#199=VERTEX_POINT('',#640);
#200=VERTEX_POINT('',#644);
#201=VERTEX_POINT('',#646);
#202=VERTEX_POINT('',#650);
#203=VERTEX_POINT('',#652);
#204=VERTEX_POINT('',#656);
#205=VERTEX_POINT('',#658);
#206=VERTEX_POINT('',#662);
#207=VERTEX_POINT('',#664);
#208=VERTEX_POINT('',#668);
#209=VERTEX_POINT('',#670);
#210=VERTEX_POINT('',#672);
#211=VERTEX_POINT('',#674);
#212=VERTEX_POINT('',#676);
#213=VERTEX_POINT('',#678);
#214=VERTEX_POINT('',#680);
#215=VERTEX_POINT('',#683);
#216=VERTEX_POINT('',#687);
#217=VERTEX_POINT('',#691);
#218=VERTEX_POINT('',#695);
#219=VERTEX_POINT('',#699);
#220=VERTEX_POINT('',#703);
#221=VERTEX_POINT('',#707);
#222=EDGE_CURVE('',#192,#192,#162,.T.);
#223=EDGE_CURVE('',#193,#193,#163,.T.);
#224=EDGE_CURVE('',#193,#192,#47,.T.);
#225=EDGE_CURVE('',#194,#194,#164,.T.);
#226=EDGE_CURVE('',#195,#195,#165,.T.);
#227=EDGE_CURVE('',#195,#194,#48,.T.);
#228=EDGE_CURVE('',#196,#196,#166,.T.);
#229=EDGE_CURVE('',#196,#197,#49,.T.);
#230=EDGE_CURVE('',#197,#197,#167,.T.);
#231=EDGE_CURVE('',#198,#198,#168,.F.);
#232=EDGE_CURVE('',#198,#199,#50,.T.);
#233=EDGE_CURVE('',#199,#199,#169,.T.);
#234=EDGE_CURVE('',#200,#200,#170,.T.);
#235=EDGE_CURVE('',#200,#201,#51,.T.);
#236=EDGE_CURVE('',#201,#201,#171,.F.);
#237=EDGE_CURVE('',#202,#202,#172,.F.);
#238=EDGE_CURVE('',#202,#203,#52,.T.);
#239=EDGE_CURVE('',#203,#203,#173,.T.);
#240=EDGE_CURVE('',#204,#204,#174,.T.);
#241=EDGE_CURVE('',#204,#205,#53,.T.);
#242=EDGE_CURVE('',#205,#205,#175,.T.);
#243=EDGE_CURVE('',#206,#206,#176,.F.);
#244=EDGE_CURVE('',#206,#207,#54,.T.);
#245=EDGE_CURVE('',#207,#207,#177,.T.);
#246=EDGE_CURVE('',#208,#208,#178,.T.);
#247=EDGE_CURVE('',#209,#209,#179,.T.);
#248=EDGE_CURVE('',#210,#210,#180,.T.);
#249=EDGE_CURVE('',#211,#211,#181,.T.);
#250=EDGE_CURVE('',#212,#212,#182,.T.);
#251=EDGE_CURVE('',#213,#213,#183,.T.);
#252=EDGE_CURVE('',#214,#214,#184,.T.);
#253=EDGE_CURVE('',#215,#215,#185,.T.);
#254=EDGE_CURVE('',#215,#208,#55,.T.);
#255=EDGE_CURVE('',#216,#216,#186,.T.);
#256=EDGE_CURVE('',#216,#209,#56,.T.);
#257=EDGE_CURVE('',#217,#217,#187,.T.);
#258=EDGE_CURVE('',#217,#212,#57,.T.);
#259=EDGE_CURVE('',#213,#218,#58,.T.);
#260=EDGE_CURVE('',#218,#218,#188,.T.);
#261=EDGE_CURVE('',#214,#219,#59,.T.);
#262=EDGE_CURVE('',#219,#219,#189,.T.);
#263=EDGE_CURVE('',#220,#220,#190,.T.);
#264=EDGE_CURVE('',#220,#210,#60,.T.);
#265=EDGE_CURVE('',#221,#221,#191,.T.);
#266=EDGE_CURVE('',#221,#211,#61,.T.);
#267=ORIENTED_EDGE('',*,*,#222,.F.);
#268=ORIENTED_EDGE('',*,*,#223,.F.);
#269=ORIENTED_EDGE('',*,*,#224,.T.);
#270=ORIENTED_EDGE('',*,*,#222,.T.);
#271=ORIENTED_EDGE('',*,*,#224,.F.);
#272=ORIENTED_EDGE('',*,*,#225,.F.);
#273=ORIENTED_EDGE('',*,*,#223,.T.);
#274=ORIENTED_EDGE('',*,*,#226,.T.);
#275=ORIENTED_EDGE('',*,*,#227,.T.);
#276=ORIENTED_EDGE('',*,*,#225,.T.);
#277=ORIENTED_EDGE('',*,*,#227,.F.);
#278=ORIENTED_EDGE('',*,*,#226,.F.);
#279=ORIENTED_EDGE('',*,*,#228,.F.);
#280=ORIENTED_EDGE('',*,*,#228,.T.);
#281=ORIENTED_EDGE('',*,*,#229,.T.);
#282=ORIENTED_EDGE('',*,*,#230,.T.);
#283=ORIENTED_EDGE('',*,*,#229,.F.);
#284=ORIENTED_EDGE('',*,*,#230,.F.);
#285=ORIENTED_EDGE('',*,*,#231,.T.);
#286=ORIENTED_EDGE('',*,*,#232,.T.);
#287=ORIENTED_EDGE('',*,*,#233,.T.);
#288=ORIENTED_EDGE('',*,*,#232,.F.);
#289=ORIENTED_EDGE('',*,*,#234,.T.);
#290=ORIENTED_EDGE('',*,*,#235,.T.);
#291=ORIENTED_EDGE('',*,*,#236,.T.);
#292=ORIENTED_EDGE('',*,*,#235,.F.);
#293=ORIENTED_EDGE('',*,*,#237,.T.);
#294=ORIENTED_EDGE('',*,*,#238,.T.);
#295=ORIENTED_EDGE('',*,*,#239,.T.);
#296=ORIENTED_EDGE('',*,*,#238,.F.);
#297=ORIENTED_EDGE('',*,*,#240,.T.);
#298=ORIENTED_EDGE('',*,*,#241,.T.);
#299=ORIENTED_EDGE('',*,*,#242,.F.);
#300=ORIENTED_EDGE('',*,*,#241,.F.);
#301=ORIENTED_EDGE('',*,*,#243,.T.);
#302=ORIENTED_EDGE('',*,*,#244,.T.);
#303=ORIENTED_EDGE('',*,*,#245,.T.);
#304=ORIENTED_EDGE('',*,*,#244,.F.);
#305=ORIENTED_EDGE('',*,*,#246,.F.);
#306=ORIENTED_EDGE('',*,*,#247,.T.);
#307=ORIENTED_EDGE('',*,*,#248,.T.);
#308=ORIENTED_EDGE('',*,*,#249,.T.);
#309=ORIENTED_EDGE('',*,*,#242,.T.);
#310=ORIENTED_EDGE('',*,*,#250,.T.);
#311=ORIENTED_EDGE('',*,*,#251,.F.);
#312=ORIENTED_EDGE('',*,*,#252,.F.);
#313=ORIENTED_EDGE('',*,*,#253,.T.);
#314=ORIENTED_EDGE('',*,*,#254,.T.);
#315=ORIENTED_EDGE('',*,*,#246,.T.);
#316=ORIENTED_EDGE('',*,*,#254,.F.);
#317=ORIENTED_EDGE('',*,*,#255,.T.);
#318=ORIENTED_EDGE('',*,*,#256,.T.);
#319=ORIENTED_EDGE('',*,*,#247,.F.);
#320=ORIENTED_EDGE('',*,*,#256,.F.);
#321=ORIENTED_EDGE('',*,*,#257,.T.);
#322=ORIENTED_EDGE('',*,*,#258,.T.);
#323=ORIENTED_EDGE('',*,*,#250,.F.);
#324=ORIENTED_EDGE('',*,*,#258,.F.);
#325=ORIENTED_EDGE('',*,*,#251,.T.);
#326=ORIENTED_EDGE('',*,*,#259,.T.);
#327=ORIENTED_EDGE('',*,*,#260,.T.);
#328=ORIENTED_EDGE('',*,*,#259,.F.);
#329=ORIENTED_EDGE('',*,*,#252,.T.);
#330=ORIENTED_EDGE('',*,*,#261,.T.);
#331=ORIENTED_EDGE('',*,*,#262,.T.);
#332=ORIENTED_EDGE('',*,*,#261,.F.);
#333=ORIENTED_EDGE('',*,*,#263,.T.);
#334=ORIENTED_EDGE('',*,*,#264,.T.);
#335=ORIENTED_EDGE('',*,*,#248,.F.);
#336=ORIENTED_EDGE('',*,*,#264,.F.);
#337=ORIENTED_EDGE('',*,*,#265,.T.);
#338=ORIENTED_EDGE('',*,*,#266,.T.);
#339=ORIENTED_EDGE('',*,*,#249,.F.);
#340=ORIENTED_EDGE('',*,*,#266,.F.);
#341=ORIENTED_EDGE('',*,*,#253,.F.);
#342=ORIENTED_EDGE('',*,*,#233,.F.);
#343=ORIENTED_EDGE('',*,*,#234,.F.);
#344=ORIENTED_EDGE('',*,*,#239,.F.);
#345=ORIENTED_EDGE('',*,*,#245,.F.);
#346=ORIENTED_EDGE('',*,*,#240,.F.);
#347=ORIENTED_EDGE('',*,*,#260,.F.);
#348=ORIENTED_EDGE('',*,*,#262,.F.);
#349=ORIENTED_EDGE('',*,*,#231,.F.);
#350=ORIENTED_EDGE('',*,*,#255,.F.);
#351=ORIENTED_EDGE('',*,*,#243,.F.);
#352=ORIENTED_EDGE('',*,*,#257,.F.);
#353=ORIENTED_EDGE('',*,*,#236,.F.);
#354=ORIENTED_EDGE('',*,*,#263,.F.);
#355=ORIENTED_EDGE('',*,*,#237,.F.);
#356=ORIENTED_EDGE('',*,*,#265,.F.);
#357=PLANE('',#419);
#358=PLANE('',#423);
#359=PLANE('',#427);
#360=PLANE('',#431);
#361=PLANE('',#448);
#362=PLANE('',#470);
#363=PLANE('',#471);
#364=PLANE('',#472);
#365=PLANE('',#473);
#366=PLANE('',#474);
#367=ADVANCED_FACE('',(#92),#357,.F.);
#368=ADVANCED_FACE('',(#93),#77,.T.);
#369=ADVANCED_FACE('',(#94,#27),#358,.F.);
#370=ADVANCED_FACE('',(#95),#78,.T.);
#371=ADVANCED_FACE('',(#96,#28),#359,.T.);
#372=ADVANCED_FACE('',(#97),#79,.F.);
#373=ADVANCED_FACE('',(#98),#360,.T.);
#374=ADVANCED_FACE('',(#99),#80,.T.);
#375=ADVANCED_FACE('',(#100),#81,.T.);
#376=ADVANCED_FACE('',(#101),#82,.T.);
#377=ADVANCED_FACE('',(#102),#83,.F.);
#378=ADVANCED_FACE('',(#103),#84,.T.);
#379=ADVANCED_FACE('',(#104,#29,#30,#31,#32,#33,#34,#35),#361,.F.);
#380=ADVANCED_FACE('',(#105),#85,.T.);
#381=ADVANCED_FACE('',(#106),#86,.F.);
#382=ADVANCED_FACE('',(#107),#87,.F.);
#383=ADVANCED_FACE('',(#108),#88,.F.);
#384=ADVANCED_FACE('',(#109),#89,.F.);
#385=ADVANCED_FACE('',(#110),#90,.F.);
#386=ADVANCED_FACE('',(#111),#91,.F.);
#387=ADVANCED_FACE('',(#112,#36,#37,#38,#39,#40,#41,#42),#362,.T.);
#388=ADVANCED_FACE('',(#113,#43),#363,.T.);
#389=ADVANCED_FACE('',(#114,#44),#364,.T.);
#390=ADVANCED_FACE('',(#115,#45),#365,.T.);
#391=ADVANCED_FACE('',(#116,#46),#366,.T.);
#392=CLOSED_SHELL('',(#367,#368,#369,#370,#371,#372,#373));
#393=CLOSED_SHELL('',(#374,#375,#376,#377,#378,#379,#380,#381,#382,#383,
#384,#385,#386,#387,#388,#389,#390,#391));
#394=DERIVED_UNIT_ELEMENT(#398,1.);
#395=DERIVED_UNIT_ELEMENT(#726,-3.);
#396=DERIVED_UNIT_ELEMENT(#398,1.);
#397=DERIVED_UNIT_ELEMENT(#726,-3.);
#398=(
MASS_UNIT()
NAMED_UNIT(*)
SI_UNIT(.KILO.,.GRAM.)
);
#399=DERIVED_UNIT((#394,#395));
#400=DERIVED_UNIT((#396,#397));
#401=MEASURE_REPRESENTATION_ITEM('density measure',
POSITIVE_RATIO_MEASURE(7850.),#399);
#402=MEASURE_REPRESENTATION_ITEM('density measure',
POSITIVE_RATIO_MEASURE(7850.),#400);
#403=PROPERTY_DEFINITION_REPRESENTATION(#413,#407);
#404=PROPERTY_DEFINITION_REPRESENTATION(#414,#408);
#405=PROPERTY_DEFINITION_REPRESENTATION(#415,#409);
#406=PROPERTY_DEFINITION_REPRESENTATION(#416,#410);
#407=REPRESENTATION('material name',(#411),#722);
#408=REPRESENTATION('density',(#401),#722);
#409=REPRESENTATION('material name',(#412),#723);
#410=REPRESENTATION('density',(#402),#723);
#411=DESCRIPTIVE_REPRESENTATION_ITEM('Acier','Acier');
#412=DESCRIPTIVE_REPRESENTATION_ITEM('Acier','Acier');
#413=PROPERTY_DEFINITION('material property','material name',#742);
#414=PROPERTY_DEFINITION('material property','density of part',#742);
#415=PROPERTY_DEFINITION('material property','material name',#743);
#416=PROPERTY_DEFINITION('material property','density of part',#743);
#417=AXIS2_PLACEMENT_3D('',#612,#477,#478);
#418=AXIS2_PLACEMENT_3D('',#613,#479,#480);
#419=AXIS2_PLACEMENT_3D('',#614,#481,#482);
#420=AXIS2_PLACEMENT_3D('',#616,#483,#484);
#421=AXIS2_PLACEMENT_3D('',#617,#485,#486);
#422=AXIS2_PLACEMENT_3D('',#619,#487,#488);
#423=AXIS2_PLACEMENT_3D('',#621,#490,#491);
#424=AXIS2_PLACEMENT_3D('',#623,#492,#493);
#425=AXIS2_PLACEMENT_3D('',#624,#494,#495);
#426=AXIS2_PLACEMENT_3D('',#626,#496,#497);
#427=AXIS2_PLACEMENT_3D('',#628,#499,#500);
#428=AXIS2_PLACEMENT_3D('',#630,#501,#502);
#429=AXIS2_PLACEMENT_3D('',#631,#503,#504);
#430=AXIS2_PLACEMENT_3D('',#634,#506,#507);
#431=AXIS2_PLACEMENT_3D('',#635,#508,#509);
#432=AXIS2_PLACEMENT_3D('',#636,#510,#511);
#433=AXIS2_PLACEMENT_3D('',#637,#512,#513);
#434=AXIS2_PLACEMENT_3D('',#639,#514,#515);
#435=AXIS2_PLACEMENT_3D('',#642,#517,#518);
#436=AXIS2_PLACEMENT_3D('',#643,#519,#520);
#437=AXIS2_PLACEMENT_3D('',#645,#521,#522);
#438=AXIS2_PLACEMENT_3D('',#648,#524,#525);
#439=AXIS2_PLACEMENT_3D('',#649,#526,#527);
#440=AXIS2_PLACEMENT_3D('',#651,#528,#529);
#441=AXIS2_PLACEMENT_3D('',#654,#531,#532);
#442=AXIS2_PLACEMENT_3D('',#655,#533,#534);
#443=AXIS2_PLACEMENT_3D('',#657,#535,#536);
#444=AXIS2_PLACEMENT_3D('',#660,#538,#539);
#445=AXIS2_PLACEMENT_3D('',#661,#540,#541);
#446=AXIS2_PLACEMENT_3D('',#663,#542,#543);
#447=AXIS2_PLACEMENT_3D('',#666,#545,#546);
#448=AXIS2_PLACEMENT_3D('',#667,#547,#548);
#449=AXIS2_PLACEMENT_3D('',#669,#549,#550);
#450=AXIS2_PLACEMENT_3D('',#671,#551,#552);
#451=AXIS2_PLACEMENT_3D('',#673,#553,#554);
#452=AXIS2_PLACEMENT_3D('',#675,#555,#556);
#453=AXIS2_PLACEMENT_3D('',#677,#557,#558);
#454=AXIS2_PLACEMENT_3D('',#679,#559,#560);
#455=AXIS2_PLACEMENT_3D('',#681,#561,#562);
#456=AXIS2_PLACEMENT_3D('',#682,#563,#564);
#457=AXIS2_PLACEMENT_3D('',#684,#565,#566);
#458=AXIS2_PLACEMENT_3D('',#686,#568,#569);
#459=AXIS2_PLACEMENT_3D('',#688,#570,#571);
#460=AXIS2_PLACEMENT_3D('',#690,#573,#574);
#461=AXIS2_PLACEMENT_3D('',#692,#575,#576);
#462=AXIS2_PLACEMENT_3D('',#694,#578,#579);
#463=AXIS2_PLACEMENT_3D('',#697,#581,#582);
#464=AXIS2_PLACEMENT_3D('',#698,#583,#584);
#465=AXIS2_PLACEMENT_3D('',#701,#586,#587);
#466=AXIS2_PLACEMENT_3D('',#702,#588,#589);
#467=AXIS2_PLACEMENT_3D('',#704,#590,#591);
#468=AXIS2_PLACEMENT_3D('',#706,#593,#594);
#469=AXIS2_PLACEMENT_3D('',#708,#595,#596);
#470=AXIS2_PLACEMENT_3D('',#710,#598,#599);
#471=AXIS2_PLACEMENT_3D('',#711,#600,#601);
#472=AXIS2_PLACEMENT_3D('',#712,#602,#603);
#473=AXIS2_PLACEMENT_3D('',#713,#604,#605);
#474=AXIS2_PLACEMENT_3D('',#714,#606,#607);
#475=AXIS2_PLACEMENT_3D('',#715,#608,#609);
#476=AXIS2_PLACEMENT_3D('',#716,#610,#611);
#477=DIRECTION('axis',(0.,0.,1.));
#478=DIRECTION('refdir',(1.,0.,0.));
#479=DIRECTION('axis',(0.,0.,1.));
#480=DIRECTION('refdir',(1.,0.,0.));
#481=DIRECTION('center_axis',(0.,0.,1.));
#482=DIRECTION('ref_axis',(1.,0.,0.));
#483=DIRECTION('center_axis',(0.,0.,1.));
#484=DIRECTION('ref_axis',(-1.,0.,0.));
#485=DIRECTION('center_axis',(-9.18717563185756E-26,3.10237124389128E-32,
1.));
#486=DIRECTION('ref_axis',(-1.,0.,-9.18717563185756E-26));
#487=DIRECTION('center_axis',(0.,0.,1.));
#488=DIRECTION('ref_axis',(-1.,0.,0.));
#489=DIRECTION('',(9.18717563185756E-26,-3.10237124389128E-32,-1.));
#490=DIRECTION('center_axis',(0.,0.,1.));
#491=DIRECTION('ref_axis',(1.,0.,0.));
#492=DIRECTION('center_axis',(0.,0.,1.));
#493=DIRECTION('ref_axis',(-1.,0.,0.));
#494=DIRECTION('center_axis',(-3.74931957926033E-20,1.0982136505571E-25,
1.));
#495=DIRECTION('ref_axis',(-1.,0.,-3.74931957926033E-20));
#496=DIRECTION('center_axis',(0.,0.,-1.));
#497=DIRECTION('ref_axis',(-1.,0.,0.));
#498=DIRECTION('',(3.74931957926033E-20,-1.0982136505571E-25,-1.));
#499=DIRECTION('center_axis',(0.,0.,1.));
#500=DIRECTION('ref_axis',(1.,0.,0.));
#501=DIRECTION('center_axis',(0.,0.,1.));
#502=DIRECTION('ref_axis',(1.,0.,0.));
#503=DIRECTION('center_axis',(6.30040894157473E-25,-4.17095351762497E-36,
-1.));
#504=DIRECTION('ref_axis',(1.,0.,6.30040894157473E-25));
#505=DIRECTION('',(6.30040894157473E-25,-4.17095351762497E-36,-1.));
#506=DIRECTION('center_axis',(0.,0.,-1.));
#507=DIRECTION('ref_axis',(1.,0.,0.));
#508=DIRECTION('center_axis',(0.,0.,1.));
#509=DIRECTION('ref_axis',(1.,0.,0.));
#510=DIRECTION('axis',(0.,0.,1.));
#511=DIRECTION('refdir',(1.,0.,0.));
#512=DIRECTION('center_axis',(-5.38783099831598E-9,6.41337011090841E-9,
1.));
#513=DIRECTION('ref_axis',(-1.,0.,-5.38783099831598E-9));
#514=DIRECTION('center_axis',(0.,0.,1.));
#515=DIRECTION('ref_axis',(-1.,3.45541542872255E-17,0.));
#516=DIRECTION('',(5.38783099831598E-9,-6.41337011090841E-9,-1.));
#517=DIRECTION('center_axis',(0.,0.,1.));
#518=DIRECTION('ref_axis',(-1.,3.45541542872255E-17,0.));
#519=DIRECTION('center_axis',(-6.44464159706975E-8,-1.18361375251051E-8,
-0.999999999999998));
#520=DIRECTION('ref_axis',(0.999999999999998,9.86076131526264E-32,-6.44464159706975E-8));
#521=DIRECTION('center_axis',(0.,0.,1.));
#522=DIRECTION('ref_axis',(1.,7.62796642429307E-16,0.));
#523=DIRECTION('',(6.44464159706975E-8,1.18361375251051E-8,0.999999999999998));
#524=DIRECTION('center_axis',(0.,0.,1.));
#525=DIRECTION('ref_axis',(1.,7.62796642429308E-16,0.));
#526=DIRECTION('center_axis',(6.5414096638052E-8,-1.19610326284418E-8,0.999999999999998));
#527=DIRECTION('ref_axis',(-0.999999999999998,1.18329135783152E-30,6.5414096638052E-8));
#528=DIRECTION('center_axis',(0.,0.,1.));
#529=DIRECTION('ref_axis',(-1.,7.82420144247783E-16,0.));
#530=DIRECTION('',(-6.5414096638052E-8,1.19610326284418E-8,-0.999999999999998));
#531=DIRECTION('center_axis',(0.,0.,1.));
#532=DIRECTION('ref_axis',(-1.,7.82420144247783E-16,0.));
#533=DIRECTION('center_axis',(0.,0.,-1.));
#534=DIRECTION('ref_axis',(-1.,0.,0.));
#535=DIRECTION('center_axis',(0.,0.,1.));
#536=DIRECTION('ref_axis',(-1.,0.,0.));
#537=DIRECTION('',(0.,0.,-1.));
#538=DIRECTION('center_axis',(0.,0.,1.));
#539=DIRECTION('ref_axis',(-1.,0.,0.));
#540=DIRECTION('center_axis',(-2.9796060055104E-9,-3.00174166858544E-8,
1.));
#541=DIRECTION('ref_axis',(-1.,0.,-2.9796060055104E-9));
#542=DIRECTION('center_axis',(0.,0.,1.));
#543=DIRECTION('ref_axis',(1.02716263218448E-32,-1.,0.));
#544=DIRECTION('',(2.9796060055104E-9,3.00174166858544E-8,-1.));
#545=DIRECTION('center_axis',(0.,0.,1.));
#546=DIRECTION('ref_axis',(0.,-1.,0.));
#547=DIRECTION('center_axis',(0.,0.,1.));
#548=DIRECTION('ref_axis',(1.,0.,0.));
#549=DIRECTION('center_axis',(0.,0.,1.));
#550=DIRECTION('ref_axis',(-1.,0.,0.));
#551=DIRECTION('center_axis',(0.,0.,1.));
#552=DIRECTION('ref_axis',(1.,0.,0.));
#553=DIRECTION('center_axis',(0.,0.,1.));
#554=DIRECTION('ref_axis',(1.,0.,0.));
#555=DIRECTION('center_axis',(0.,0.,1.));
#556=DIRECTION('ref_axis',(1.,0.,0.));
#557=DIRECTION('center_axis',(0.,0.,1.));
#558=DIRECTION('ref_axis',(1.,0.,0.));
#559=DIRECTION('center_axis',(0.,0.,-1.));
#560=DIRECTION('ref_axis',(-1.,0.,0.));
#561=DIRECTION('center_axis',(0.,0.,-1.));
#562=DIRECTION('ref_axis',(-1.,0.,0.));
#563=DIRECTION('center_axis',(-6.76485589445907E-18,-2.99616085527429E-30,
1.));
#564=DIRECTION('ref_axis',(-1.,0.,-6.76485589445907E-18));
#565=DIRECTION('center_axis',(0.,0.,-1.));
#566=DIRECTION('ref_axis',(-1.,0.,0.));
#567=DIRECTION('',(6.76485589445907E-18,2.99616085527429E-30,-1.));
#568=DIRECTION('center_axis',(2.97505754662982E-18,9.05343690579804E-20,
-1.));
#569=DIRECTION('ref_axis',(1.,0.,2.97505754662982E-18));
#570=DIRECTION('center_axis',(0.,0.,1.));
#571=DIRECTION('ref_axis',(1.,0.,0.));
#572=DIRECTION('',(2.97505754662982E-18,9.05343690579804E-20,-1.));
#573=DIRECTION('center_axis',(2.97506261312282E-18,-9.05349558358477E-20,
-1.));
#574=DIRECTION('ref_axis',(1.,0.,2.97506261312282E-18));
#575=DIRECTION('center_axis',(0.,0.,1.));
#576=DIRECTION('ref_axis',(1.,0.,0.));
#577=DIRECTION('',(2.97506261312282E-18,-9.05349558358477E-20,-1.));
#578=DIRECTION('center_axis',(3.64853313665867E-17,-7.43365695077591E-30,
1.));
#579=DIRECTION('ref_axis',(-1.,0.,3.64853313665867E-17));
#580=DIRECTION('',(3.64853313665867E-17,-7.43365695077591E-30,1.));
#581=DIRECTION('center_axis',(0.,0.,1.));
#582=DIRECTION('ref_axis',(-1.,0.,0.));
#583=DIRECTION('center_axis',(3.64853313665867E-17,-7.43365695077591E-30,
1.));
#584=DIRECTION('ref_axis',(-1.,0.,3.64853313665867E-17));
#585=DIRECTION('',(3.64853313665867E-17,-7.43365695077591E-30,1.));
#586=DIRECTION('center_axis',(0.,0.,1.));
#587=DIRECTION('ref_axis',(-1.,0.,0.));
#588=DIRECTION('center_axis',(1.34780865768267E-15,-2.07465097964147E-16,
-1.));
#589=DIRECTION('ref_axis',(1.,0.,1.34780865768267E-15));
#590=DIRECTION('center_axis',(0.,0.,1.));
#591=DIRECTION('ref_axis',(1.,0.,0.));
#592=DIRECTION('',(1.34780865768267E-15,-2.07465097964147E-16,-1.));
#593=DIRECTION('center_axis',(1.34780865083773E-15,2.07465096631281E-16,
-1.));
#594=DIRECTION('ref_axis',(1.,0.,1.34780865083773E-15));
#595=DIRECTION('center_axis',(0.,0.,1.));
#596=DIRECTION('ref_axis',(1.,0.,0.));
#597=DIRECTION('',(1.34780865083773E-15,2.07465096631281E-16,-1.));
#598=DIRECTION('center_axis',(0.,0.,1.));
#599=DIRECTION('ref_axis',(1.,0.,0.));
#600=DIRECTION('center_axis',(0.,0.,1.));
#601=DIRECTION('ref_axis',(1.,0.,0.));
#602=DIRECTION('center_axis',(0.,0.,1.));
#603=DIRECTION('ref_axis',(1.,0.,0.));
#604=DIRECTION('center_axis',(0.,0.,1.));
#605=DIRECTION('ref_axis',(1.,0.,0.));
#606=DIRECTION('center_axis',(0.,0.,1.));
#607=DIRECTION('ref_axis',(1.,0.,0.));
#608=DIRECTION('',(0.,0.,1.));
#609=DIRECTION('',(1.,0.,0.));
#610=DIRECTION('',(0.,0.,1.));
#611=DIRECTION('',(1.,0.,0.));
#612=CARTESIAN_POINT('',(0.,0.,0.));
#613=CARTESIAN_POINT('',(0.,0.,0.));
#614=CARTESIAN_POINT('Origin',(-13.4999999952061,-1.65327313128889E-15,
36.));
#615=CARTESIAN_POINT('',(-11.9999999957388,-1.46957611148202E-15,36.));
#616=CARTESIAN_POINT('Origin',(-13.4999999952061,-1.65327313128889E-15,
36.));
#617=CARTESIAN_POINT('Origin',(-13.4999999952061,-1.65327313128889E-15,
34.));
#618=CARTESIAN_POINT('',(-11.9999999957388,-1.46957611148202E-15,40.));
#619=CARTESIAN_POINT('Origin',(-13.4999999952061,-1.65327313128889E-15,
40.));
#620=CARTESIAN_POINT('',(-11.9999999957388,-1.46957611148202E-15,34.));
#621=CARTESIAN_POINT('Origin',(-13.4999999855449,-1.65529177980156E-15,
40.));
#622=CARTESIAN_POINT('',(-9.99999997219821,-1.22464675344815E-15,40.));
#623=CARTESIAN_POINT('Origin',(-13.4999999675444,-1.6532731325798E-15,40.));
#624=CARTESIAN_POINT('Origin',(-13.4999999675444,-1.65327313279944E-15,
38.));
#625=CARTESIAN_POINT('',(-9.99999997219821,-1.22464675213029E-15,52.));
#626=CARTESIAN_POINT('Origin',(-13.4999999675444,-1.65327313126194E-15,
52.));
#627=CARTESIAN_POINT('',(-9.99999997219816,-1.22464675366779E-15,38.));
#628=CARTESIAN_POINT('Origin',(-13.4999999861425,-1.64411665273528E-15,
52.));
#629=CARTESIAN_POINT('',(-15.4999999856518,-1.65327313128889E-15,52.));
#630=CARTESIAN_POINT('Origin',(-13.4999999952061,-1.65327313128889E-15,
52.));
#631=CARTESIAN_POINT('Origin',(-13.4999999952061,-1.65327313128889E-15,
50.));
#632=CARTESIAN_POINT('',(-15.4999999856518,-1.65327313128889E-15,50.));
#633=CARTESIAN_POINT('',(-15.4999999856518,-1.40834377262948E-15,50.));
#634=CARTESIAN_POINT('Origin',(-13.4999999952061,-1.65327313128889E-15,
50.));
#635=CARTESIAN_POINT('Origin',(-13.4999999952061,-1.65327313128889E-15,
50.));
#636=CARTESIAN_POINT('',(0.,0.,0.));
#637=CARTESIAN_POINT('Origin',(13.5000005743474,-7.99999998803737,37.3484675067115));
#638=CARTESIAN_POINT('',(16.5000005123343,-7.99999994217194,44.5));
#639=CARTESIAN_POINT('Origin',(13.5000005358161,-7.99999994217194,44.5));
#640=CARTESIAN_POINT('',(16.5000005500491,-7.99999998706554,37.5));
#641=CARTESIAN_POINT('',(16.5000005508656,-7.99999998803737,37.348467522875));
#642=CARTESIAN_POINT('Origin',(13.5000005735309,-7.99999998706553,37.5));
#643=CARTESIAN_POINT('Origin',(29.5000002174393,-8.00000001929407,37.5));
#644=CARTESIAN_POINT('',(26.5000001017666,-8.00000001929407,37.5));
#645=CARTESIAN_POINT('Origin',(29.5000002174393,-8.00000001929407,37.5));
#646=CARTESIAN_POINT('',(26.5000005528914,-7.99999993644111,44.5));
#647=CARTESIAN_POINT('',(26.5000001017666,-8.00000001929407,37.5000001933393));
#648=CARTESIAN_POINT('Origin',(29.5000006685642,-7.99999993644111,44.5));
#649=CARTESIAN_POINT('Origin',(29.5000000943652,8.00000004176652,35.6800554066343));
#650=CARTESIAN_POINT('',(32.5000008512682,7.99999993627087,44.5));
#651=CARTESIAN_POINT('Origin',(29.5000006713139,7.99999993627087,44.5));
#652=CARTESIAN_POINT('',(32.5000003933696,8.0000000199981,37.5));
#653=CARTESIAN_POINT('',(32.5000002743196,8.00000004176652,35.680055210392));
#654=CARTESIAN_POINT('Origin',(29.5000002134152,8.0000000199981,37.5));
#655=CARTESIAN_POINT('Origin',(21.5000004768218,-1.54225082882638E-15,37.5));
#656=CARTESIAN_POINT('',(29.5000004768218,-2.52196826814426E-15,37.5));
#657=CARTESIAN_POINT('Origin',(21.5000004768218,-1.54225082882638E-15,37.5));
#658=CARTESIAN_POINT('',(29.5000004768218,-2.52196826814426E-15,36.));
#659=CARTESIAN_POINT('',(29.5000004768218,-2.52196826814426E-15,37.5));
#660=CARTESIAN_POINT('Origin',(21.5000004768218,-1.54225082882638E-15,36.));
#661=CARTESIAN_POINT('Origin',(13.5000005652993,8.00000009492509,36.9558003272332));
#662=CARTESIAN_POINT('',(16.5000005569042,7.99999986846771,44.5));
#663=CARTESIAN_POINT('Origin',(13.5000005428206,7.99999986846771,44.5));
#664=CARTESIAN_POINT('',(16.5000005777614,8.00000007858963,37.5));
#665=CARTESIAN_POINT('',(16.5000005793829,8.00000009492509,36.955800336172));
#666=CARTESIAN_POINT('Origin',(13.5000005636778,8.00000007858963,37.5));
#667=CARTESIAN_POINT('Origin',(21.5000003764823,-1.65327313128889E-15,36.));
#668=CARTESIAN_POINT('',(37.5000004718606,4.17184049201813E-16,36.));
#669=CARTESIAN_POINT('Origin',(21.5000004768218,-1.54225082882638E-15,36.));
#670=CARTESIAN_POINT('',(12.0000005058481,-8.00000010736874,36.));
#671=CARTESIAN_POINT('Origin',(13.5000005162125,-8.00000010736874,36.));
#672=CARTESIAN_POINT('',(28.0000002875302,-8.00000010736875,36.));
#673=CARTESIAN_POINT('Origin',(29.5000001799208,-8.00000010736875,36.));
#674=CARTESIAN_POINT('',(28.0000002875302,8.00000010736874,36.));
#675=CARTESIAN_POINT('Origin',(29.5000001799208,8.00000010736874,36.));
#676=CARTESIAN_POINT('',(12.0000005058481,8.00000010736874,36.));
#677=CARTESIAN_POINT('Origin',(13.5000005162125,8.00000010736874,36.));
#678=CARTESIAN_POINT('',(23.0000001265584,-12.5,36.));
#679=CARTESIAN_POINT('Origin',(21.5000001799208,-12.5,36.));
#680=CARTESIAN_POINT('',(23.0000001265584,12.5,36.));
#681=CARTESIAN_POINT('Origin',(21.5000001799208,12.5,36.));
#682=CARTESIAN_POINT('Origin',(21.5000004768218,-1.54225082882638E-15,36.));
#683=CARTESIAN_POINT('',(37.5000004718606,4.17184049201808E-16,37.5));
#684=CARTESIAN_POINT('Origin',(21.5000004768218,-1.54225082882638E-15,37.5));
#685=CARTESIAN_POINT('',(37.5000004718606,4.17184049201813E-16,36.));
#686=CARTESIAN_POINT('Origin',(13.5000005162125,-8.00000010736874,36.));
#687=CARTESIAN_POINT('',(12.0000005058481,-8.00000010736874,44.5));
#688=CARTESIAN_POINT('Origin',(13.5000005162125,-8.00000010736874,44.5));
#689=CARTESIAN_POINT('',(12.0000005058481,-8.00000010736874,36.));
#690=CARTESIAN_POINT('Origin',(13.5000005162125,8.00000010736874,36.));
#691=CARTESIAN_POINT('',(12.0000005058481,8.00000010736874,44.5));
#692=CARTESIAN_POINT('Origin',(13.5000005162125,8.00000010736874,44.5));
#693=CARTESIAN_POINT('',(12.0000005058481,8.00000010736874,36.));
#694=CARTESIAN_POINT('Origin',(21.5000001799208,-12.5,37.5));
#695=CARTESIAN_POINT('',(23.0000001265584,-12.5,37.5));
#696=CARTESIAN_POINT('',(23.0000001265584,-12.5,37.5));
#697=CARTESIAN_POINT('Origin',(21.5000001799208,-12.5,37.5));
#698=CARTESIAN_POINT('Origin',(21.5000001799208,12.5,37.5));
#699=CARTESIAN_POINT('',(23.0000001265584,12.5,37.5));
#700=CARTESIAN_POINT('',(23.0000001265584,12.5,37.5));
#701=CARTESIAN_POINT('Origin',(21.5000001799208,12.5,37.5));
#702=CARTESIAN_POINT('Origin',(29.5000001799208,-8.00000010736875,36.));
#703=CARTESIAN_POINT('',(28.0000002875302,-8.00000010736874,44.5));
#704=CARTESIAN_POINT('Origin',(29.5000001799208,-8.00000010736874,44.5));
#705=CARTESIAN_POINT('',(28.0000002875302,-8.00000010736875,36.));
#706=CARTESIAN_POINT('Origin',(29.5000001799208,8.00000010736874,36.));
#707=CARTESIAN_POINT('',(28.0000002875302,8.00000010736874,44.5));
#708=CARTESIAN_POINT('Origin',(29.5000001799208,8.00000010736874,44.5));
#709=CARTESIAN_POINT('',(28.0000002875302,8.00000010736874,36.));
#710=CARTESIAN_POINT('Origin',(21.500000418961,-1.65327313128889E-15,37.5));
#711=CARTESIAN_POINT('Origin',(13.5000004871119,-8.,44.5));
#712=CARTESIAN_POINT('Origin',(13.5000004871119,8.,44.5));
#713=CARTESIAN_POINT('Origin',(29.5000002678765,-8.,44.5));
#714=CARTESIAN_POINT('Origin',(29.5000002678765,8.,44.5));
#715=CARTESIAN_POINT('',(0.,0.,0.));
#716=CARTESIAN_POINT('',(0.,0.,0.));
#717=UNCERTAINTY_MEASURE_WITH_UNIT(LENGTH_MEASURE(0.01),#725,
'DISTANCE_ACCURACY_VALUE',
'Maximum model space distance between geometric entities at asserted c
onnectivities');
#718=UNCERTAINTY_MEASURE_WITH_UNIT(LENGTH_MEASURE(0.01),#725,
'DISTANCE_ACCURACY_VALUE',
'Maximum model space distance between geometric entities at asserted c
onnectivities');
#719=UNCERTAINTY_MEASURE_WITH_UNIT(LENGTH_MEASURE(0.01),#725,
'DISTANCE_ACCURACY_VALUE',
'Maximum model space distance between geometric entities at asserted c
onnectivities');
#720=UNCERTAINTY_MEASURE_WITH_UNIT(LENGTH_MEASURE(0.01),#725,
'DISTANCE_ACCURACY_VALUE',
'Maximum model space distance between geometric entities at asserted c
onnectivities');
#721=(
GEOMETRIC_REPRESENTATION_CONTEXT(3)
GLOBAL_UNCERTAINTY_ASSIGNED_CONTEXT((#717))
GLOBAL_UNIT_ASSIGNED_CONTEXT((#725,#727,#728))
REPRESENTATION_CONTEXT('','3D')
);
#722=(
GEOMETRIC_REPRESENTATION_CONTEXT(3)
GLOBAL_UNCERTAINTY_ASSIGNED_CONTEXT((#718))
GLOBAL_UNIT_ASSIGNED_CONTEXT((#725,#727,#728))
REPRESENTATION_CONTEXT('','3D')
);
#723=(
GEOMETRIC_REPRESENTATION_CONTEXT(3)
GLOBAL_UNCERTAINTY_ASSIGNED_CONTEXT((#719))
GLOBAL_UNIT_ASSIGNED_CONTEXT((#725,#727,#728))
REPRESENTATION_CONTEXT('','3D')
);
#724=(
GEOMETRIC_REPRESENTATION_CONTEXT(3)
GLOBAL_UNCERTAINTY_ASSIGNED_CONTEXT((#720))
GLOBAL_UNIT_ASSIGNED_CONTEXT((#725,#727,#728))
REPRESENTATION_CONTEXT('','3D')
);
#725=(
LENGTH_UNIT()
NAMED_UNIT(*)
SI_UNIT(.MILLI.,.METRE.)
);
#726=(
LENGTH_UNIT()
NAMED_UNIT(*)
SI_UNIT($,.METRE.)
);
#727=(
NAMED_UNIT(*)
PLANE_ANGLE_UNIT()
SI_UNIT($,.RADIAN.)
);
#728=(
NAMED_UNIT(*)
SI_UNIT($,.STERADIAN.)
SOLID_ANGLE_UNIT()
);
#729=SHAPE_DEFINITION_REPRESENTATION(#732,#737);
#730=SHAPE_DEFINITION_REPRESENTATION(#733,#738);
#731=SHAPE_DEFINITION_REPRESENTATION(#734,#739);
#732=PRODUCT_DEFINITION_SHAPE('',$,#741);
#733=PRODUCT_DEFINITION_SHAPE('',$,#742);
#734=PRODUCT_DEFINITION_SHAPE('',$,#743);
#735=PRODUCT_DEFINITION_SHAPE($,$,#17);
#736=PRODUCT_DEFINITION_SHAPE($,$,#18);
#737=SHAPE_REPRESENTATION('',(#417,#475,#476),#721);
#738=SHAPE_REPRESENTATION('',(#418),#722);
#739=SHAPE_REPRESENTATION('',(#432),#723);
#740=PRODUCT_DEFINITION_CONTEXT('part definition',#751,'design');
#741=PRODUCT_DEFINITION('2026-03-31-22-01-24-899','Encoder_Bracket (1)',
#744,#740);
#742=PRODUCT_DEFINITION('2026-04-01-20-20-39-922','Magnet_Support',#745,
#740);
#743=PRODUCT_DEFINITION('2026-04-01-20-22-47-391','Encoder_Bracket',#746,
#740);
#744=PRODUCT_DEFINITION_FORMATION('',$,#753);
#745=PRODUCT_DEFINITION_FORMATION('',$,#754);
#746=PRODUCT_DEFINITION_FORMATION('',$,#755);
#747=PRODUCT_RELATED_PRODUCT_CATEGORY('Encoder_Bracket (1)',
'Encoder_Bracket (1)',(#753));
#748=PRODUCT_RELATED_PRODUCT_CATEGORY('Magnet_Support','Magnet_Support',
(#754));
#749=PRODUCT_RELATED_PRODUCT_CATEGORY('Encoder_Bracket',
'Encoder_Bracket',(#755));
#750=APPLICATION_PROTOCOL_DEFINITION('international standard',
'automotive_design',2009,#751);
#751=APPLICATION_CONTEXT(
'Core Data for Automotive Mechanical Design Process');
#752=PRODUCT_CONTEXT('part definition',#751,'mechanical');
#753=PRODUCT('2026-03-31-22-01-24-899','Encoder_Bracket (1)',$,(#752));
#754=PRODUCT('2026-04-01-20-20-39-922','Magnet_Support',$,(#752));
#755=PRODUCT('2026-04-01-20-22-47-391','Encoder_Bracket',$,(#752));
#756=PRESENTATION_STYLE_ASSIGNMENT((#758));
#757=PRESENTATION_STYLE_ASSIGNMENT((#759));
#758=SURFACE_STYLE_USAGE(.BOTH.,#760);
#759=SURFACE_STYLE_USAGE(.BOTH.,#761);
#760=SURFACE_SIDE_STYLE('',(#762));
#761=SURFACE_SIDE_STYLE('',(#763));
#762=SURFACE_STYLE_FILL_AREA(#764);
#763=SURFACE_STYLE_FILL_AREA(#765);
#764=FILL_AREA_STYLE('Acier - Satin\X\E9',(#766));
#765=FILL_AREA_STYLE('Opaque(160,160,160)',(#767));
#766=FILL_AREA_STYLE_COLOUR('Acier - Satin\X\E9',#768);
#767=FILL_AREA_STYLE_COLOUR('Opaque(160,160,160)',#769);
#768=COLOUR_RGB('Acier - Satin\X\E9',0.627450980392157,0.627450980392157,
0.627450980392157);
#769=COLOUR_RGB('Opaque(160,160,160)',0.627450980392157,0.627450980392157,
0.627450980392157);
ENDSEC;
END-ISO-10303-21;
